<svg version="1.2" xmlns="http://www.w3.org/2000/svg" viewBox="0 0 1000 1000" width="1000" height="1000">
	<title>4975411-ai</title>
	<style>
		.s0 { opacity: .3;fill: #ff74bd } 
		.s1 { fill: #ffffff } 
		.s2 { opacity: .3;fill: #83559c } 
		.s3 { fill: #ffb800 } 
		.s4 { opacity: .1;fill: #262743 } 
		.s5 { fill: #003731 } 
		.s6 { fill: #262743 } 
		.s7 { fill: #ff274b } 
		.s8 { opacity: .1;fill: #404c73 } 
		.s9 { fill: #ffcbae } 
		.s10 { fill: #ffad81 } 
		.s11 { fill: #83559c } 
		.s12 { opacity: .5;fill: #262743 } 
		.s13 { fill: #ffc672 } 
		.s14 { fill: #ff6162 } 
		.s15 { fill: #fcfffd } 
		.s16 { opacity: .5;fill: #ff6162 } 
		.s17 { fill: #404c73 } 
		.s18 { fill: #00707d } 
		.s19 { fill: #ff5024 } 
		.s20 { opacity: .3;fill: #262743 } 
		.s21 { fill: #005760 } 
		.s22 { opacity: .5;fill: #003731 } 
		.s23 { opacity: .3;fill: #ffffff } 
		.s24 { opacity: .3;fill: #ff6162 } 
		.s25 { fill: #714f83 } 
	</style>
	<g id="BACKGROUND">
		<g id="&lt;Group&gt;">
		</g>
	</g>
	<g id="OBJECTS">
		<g id="&lt;Group&gt;">
			<g id="&lt;Group&gt;">
				<path id="&lt;Path&gt;" class="s0" d="m443.7 129.1c-105.4 78-97.4 201.3-79.7 312.6 15.1 94.4 53.9 192.8 195.2 173.3 101.5-14 42.3-229.4 121.8-258.7 110.7-40.8 110.3-151.5 63.1-219.1-43.1-61.9-212.9-72.8-300.4-8.1z"/>
				<g id="&lt;Group&gt;">
					<g id="&lt;Group&gt;">
						<path id="&lt;Path&gt;" class="s1" d="m725 298.2c18 4.7 36.4-64 20.7-75.9-18.2-13.9-31.5 73.1-20.7 75.9z"/>
					</g>
					<path id="&lt;Path&gt;" class="s1" d="m739.1 182.6c-5.7 0.8-9.4 7.6-8.3 15.1 1.1 7.4 6.6 12.8 12.3 12 5.7-0.8 9.5-7.6 8.4-15.1-1.1-7.5-6.6-12.8-12.4-12z"/>
					<path id="&lt;Path&gt;" class="s1" d="m732.6 160.1c-3.7 0.8-6 4.8-5.2 9.1 0.9 4.3 4.7 7.1 8.4 6.3 3.7-0.8 6.1-4.8 5.2-9.1-0.9-4.3-4.6-7.1-8.4-6.3z"/>
				</g>
			</g>
			<path id="&lt;Path&gt;" class="s2" d="m667.4 649c0 14.2-58.1 25.8-129.8 25.8-71.6 0-129.8-11.6-129.8-25.8 0-14.3 58.2-25.8 129.8-25.8 71.7 0 129.8 11.5 129.8 25.8z"/>
			<g id="&lt;Group&gt;">
				<path id="&lt;Path&gt;" class="s3" d="m579.3 228.3c4 6.7 13.4 58 19.8 58.7 6.4 0.7 47.3-49.9 56.2-52.7 0 0 9.7 5.9 10.5 13.1 0 0-37.4 81.8-70.7 76.8-33.2-5-43.1-76.9-36.7-96.5 2.3-6.8 15.4-8.5 20.9 0.6z"/>
				<path id="&lt;Path&gt;" class="s4" d="m661.7 239.6c-13.7 24.3-48.5 73-66.3 69-17.9-4-23-54.2-38.5-72.1-2.3 26.6 8.8 83.3 38.2 87.7 33.3 5 70.7-76.8 70.7-76.8-0.3-2.9-2.1-5.6-4.1-7.8z"/>
				<g id="&lt;Group&gt;">
					<path id="&lt;Path&gt;" class="s5" d="m655.8 268.5l-57.5-11c-1.8-0.4-3-2.2-2.7-4l15.5-80.9c0.4-1.9 2.1-3.1 4-2.7l57.4 11c1.9 0.3 3.1 2.1 2.7 3.9l-15.4 81c-0.4 1.8-2.2 3-4 2.7z"/>
					<g id="&lt;Group&gt;">
						<path id="&lt;Path&gt;" class="s1" d="m644.8 188.6c-0.4 1.8-2.2 3-4 2.7-1.9-0.4-3.1-2.1-2.8-4 0.4-1.9 2.2-3.1 4-2.7 1.9 0.3 3.1 2.1 2.8 4z"/>
					</g>
					<g id="&lt;Group&gt;" style="opacity: .3">
						<path id="&lt;Path&gt;" class="s1" d="m609.5 200.1c0.3 0 0.5-0.3 0.6-0.6l4.3-23.1c0.2-1.3 1.4-2.1 2.6-1.9l7.5 1.4c0.4 0.1 0.8-0.2 0.9-0.6 0.1-0.4-0.2-0.8-0.6-0.9l-7.5-1.4c-2.1-0.3-4 1-4.4 3.1l-4.3 23.1c-0.1 0.4 0.2 0.8 0.6 0.9q0.1 0 0.3 0z"/>
					</g>
				</g>
				<path id="&lt;Path&gt;" class="s6" d="m568.8 308.6c0 0 22.1 67.3 20.6 140.3-1.5 73-19.6 178.4-19.8 179.7-0.2 1.4-12.2 6.2-13.4 0.6-1.2-5.5-19.2-198.7-22.8-199.5-3.5-0.8-14.6 76.2-17.8 103.3-3 25.8-15.4 98.1-17.2 99.6-1.8 1.5-12.8 2.5-12.9 1.3-0.3-2.8-7.2-74.2-3.3-107.9 0.4-3.3-15.3-92.2-12.1-124.5 2.2-23.3 13.4-66 30.6-81.7z"/>
				<g id="&lt;Group&gt;">
					<path id="&lt;Path&gt;" class="s7" d="m483 627.9c2.8-3.6 16.7-4.6 20.6-2 3.8 2.6 7.4 5.9 10.8 7.7 3.4 1.8 15.9 7.7 18.5 11 2.5 3.3-0.2 7.6-3.9 8.9-4.1 1.4-37.2-2-43.4-5.4-6.1-3.5-6.5-14.8-2.6-20.2z"/>
					<g id="&lt;Group&gt;" style="opacity: .2">
						<path id="&lt;Path&gt;" class="s1" d="m502.6 627.9c-1.5-1-4.6-1.4-7.9-1.3-1.5 12 21 25.3 32.2 16.9-4.2-2.6-12-7.3-14.7-8.7-3-1.6-6.2-4.6-9.6-6.9z"/>
					</g>
				</g>
				<g id="&lt;Group&gt;">
					<path id="&lt;Path&gt;" class="s7" d="m553.2 624.8c2.7-3.7 16.7-4.7 20.5-2.1 3.9 2.6 7.4 5.9 10.9 7.7 3.4 1.9 17.9 5.7 20.4 9 2.6 3.3-0.2 7.7-3.8 8.9-4.2 1.4-39.3 0.1-45.4-3.4-6.2-3.4-6.6-14.8-2.6-20.1z"/>
					<g id="&lt;Group&gt;" style="opacity: .2">
						<path id="&lt;Path&gt;" class="s1" d="m572.8 624.8c-1.5-1-4.6-1.4-7.9-1.3-1.6 11.9 23 23.2 34.1 14.8-4.1-2.6-14-5.3-16.6-6.7-3.1-1.6-6.2-4.5-9.6-6.8z"/>
					</g>
				</g>
				<g id="&lt;Group&gt;">
					<path id="&lt;Path&gt;" class="s1" d="m564.4 206c2.6-12.2 4.3-28.8-3.6-60.1-3.7-14.6-21-28.9-43-24.9-26.6 4.9-35.2 26.7-33.2 46.6 1.4 13.2 1.1 29.2 0.5 37.5 19.3 14.4 59.1 12.3 79.3 0.9z"/>
				</g>
				<path id="&lt;Path&gt;" class="s8" d="m533.3 131.6c-2.8 18.5-16 24-30 32-12 8 8 30 0 40-1.8 3.6-18.1 0.4-18.2 1.5 17.7 13.3 53 12.6 74.1 3.4 4.6-9.2 2.2-52.3-1.7-62-2.9-7.2-15.7-12.1-24.2-14.9z"/>
				<path id="&lt;Path&gt;" class="s9" d="m534.5 188.8c0 0 1.9 24.4 4.8 29 3 4.7 17.2 3.4 17.2 3.4 0 0-2.4 24-16.7 24.8-14.3 0.9-37.1-28.6-37.1-28.6 0 0 6.4 3 9.7 0 3.4-2.9 2.6-34.9 2.6-34.9z"/>
				<path id="&lt;Path&gt;" class="s10" d="m537.2 210.8c-1.7-8.8-2.7-22-2.7-22l-19.5-6.3c0 0 0.3 12.7-0.3 22.9 6.9 4.1 14.8 5.8 22.5 5.4z"/>
				<g id="&lt;Group&gt;">
					<path id="&lt;Path&gt;" class="s11" d="m511.7 216.6l25.9 22.2 6.3-18.3 16.8 0.4c0 0 21 47.8 16.8 130.3 0 0-35.1 11.9-74.8 2.4l3.4-135.1z"/>
					<path id="&lt;Path&gt;" class="s12" d="m545.3 291.6c-18 4.5-30.3-8.9-40.4-22.7l-2.2 84.7c39.7 9.5 74.8-2.4 74.8-2.4 1.6-30.8-0.3-56.7-3.4-77.2-8.6 8.2-16.9 16.4-28.8 17.6z"/>
					<g id="&lt;Group&gt;" style="opacity: .2">
						<path id="&lt;Path&gt;" class="s1" d="m523.4 236.5c1.5-1.6 12.8 12.5 17 12.3 4.2-0.3 8.3-16.5 11.3-16.5 3 0 8 28.2-9.9 28.9-9.4 0.4-22.1-21-18.4-24.7z"/>
					</g>
				</g>
				<g id="&lt;Group&gt;">
					<path id="&lt;Path&gt;" class="s1" d="m553.8 176.8c0 1.5 1.2 2.7 2.7 2.7 1.5 0 2.7-1.2 2.7-2.7 0-1.5-1.2-2.8-2.7-2.8-1.5 0-2.7 1.3-2.7 2.8z"/>
				</g>
				<path id="&lt;Path&gt;" class="s13" d="m572.7 448.2c0 0-9.9-213.4-15.4-227.4 0 0 8.3-0.6 14.2 1.5 0 0 9.9 26.5 11.9 61.3 3.2 55 8.2 129.8 7.1 153.2 0 0-2.7 10.3-17.8 11.4z"/>
				<path id="&lt;Path&gt;" class="s4" d="m562.6 269.7c4.9 67.1 10.1 178.5 10.1 178.5 15.1-1.1 17.8-11.4 17.8-11.4 0.2-3.3 0.2-7.6 0.1-12.8-16.1 2.4-17.5-149.5-28-154.3z"/>
				<path id="&lt;Path&gt;" class="s9" d="m555.3 148.1c-13.9-1.3-20.6-10.5-20.6-10.5 1.3 15.1-20.2 24.4-20.2 24.4-1.1 2-1.8 4.1-2.4 6.1-1.1-1.9-3.3-4.3-6.9-3.2-5.4 1.8-1.9 16.9 6 16 0.3 4.5 1.2 7.6 1.2 7.6 0 0 23.2 19.3 35.8 10.1 12.6-9.3 7.1-50.5 7.1-50.5z"/>
				<path id="&lt;Path&gt;" class="s10" d="m534.7 137.6c1.3 15.1-20.2 24.4-20.2 24.4-1 1.8-1.7 3.8-2.2 5.7 0 2.4 0.5 5.6 1.8 5 2-8.8 8.6-12 15.1-15.7 6.5-3.8 8-8.6 8-12.6 3.7 5.2 12.3 8.2 18.5 7.8-0.3-3.4-0.4-4.1-0.4-4.1-13.9-1.3-20.6-10.5-20.6-10.5z"/>
				<path id="&lt;Path&gt;" class="s13" d="m518.1 456.4c0 0-6.5-77.9-4.1-123.8 2.3-46 9.6-94.3-2.3-116 0 0-14.9-4-22.4-0.8-7.4 3.3-17.6 21-12.9 65.3 4.6 43.8-22.3 132.2-14.4 175.3 0 0 21.8 14 56.1 0z"/>
				<path id="&lt;Path&gt;" class="s4" d="m518.3 261.2c-28.9 47.4-4.7 151.5-33 168.4-12.1 7.3-18.5-5.5-23.2-18.4-1.8 17.3-2.3 33.1-0.1 45.2 0 0 21.8 14 56.1 0 0 0-6.5-77.9-4.1-123.8 1.2-24.6 3.9-49.9 4.3-71.4z"/>
				<g id="&lt;Group&gt;">
					<path id="&lt;Path&gt;" class="s9" d="m592.4 229.7c0 0 8.1-20.1 10.6-22 2.3-1.7 16.8-7.6 19.2-6.5 2.4 1.2-13.7 7.4-12.8 8.1 0.9 0.7 15.4-6.1 16.8-4.7 1.3 1.4-13.6 7.4-13.5 8.4 0.2 0.9 11.4-3.4 12.3-2 0.8 1.4-11.1 5.5-11.2 6.3-0.2 0.9 11.7-1.7 11.8-0.6 0.3 2.5-11.4 4.8-12.6 6-1.2 1.2-3.8 9.5-12.1 13z"/>
					<path id="&lt;Path&gt;" class="s10" d="m605.3 209.6c0 0-1.5-1.3-3.7 0-3.3 5.5-9.2 20.1-9.2 20.1l8.5 6c8.3-3.5 10.9-11.8 12.1-13 1.1-1.2 11.8-3.3 12.5-5.6-4.1 1.5-10.6 2.4-11.9 2.2-1.4-0.1-7.3-6.4-8.3-9.7z"/>
					<path id="&lt;Path&gt;" class="s3" d="m500.1 217.2c6.6 4.3 29.8 66.6 36.2 67.3 6.4 0.7 48.4-54.4 56.1-60.8 0 0 12.4 6.3 13.2 13.5 0 0-47.6 92.1-80.9 87.1-33.3-5-55.7-59.6-54.9-80.2 0.8-20.6 17.8-35.2 30.3-26.9z"/>
					<path id="&lt;Path&gt;" class="s4" d="m525.5 311.4c-16.8-1.2-45.7-48.9-53.9-77.4-1 3.1-1.7 6.5-1.8 10.1-0.8 20.6 21.6 75.2 54.9 80.2 32.4 4.8 78.4-82.3 80.8-86.9-28.9 37.8-63.2 75.2-80 74z"/>
					<g id="&lt;Group&gt;" style="opacity: .3">
						<path id="&lt;Path&gt;" class="s1" d="m486.7 224.8c0.2-3.8 5.8-4.9 10.4-2.7 4.7 2.1 23.4 45.1 21.2 46.8-2.2 1.8-32-36.9-31.6-44.1z"/>
					</g>
				</g>
				<path id="&lt;Path&gt;" class="s9" d="m665.7 246.7c2.2-3.3 7.4-20.5 6.8-23.4-0.5-2.6-7-15.4-9.4-16-2.3-0.6 5.1 13.4 4 13.3-1-0.1-7-13.6-8.7-13.4-1.8 0.2 4.9 13.3 4.2 13.9-0.6 0.6-5.8-9.2-7.3-8.7-1.4 0.4 4.4 10.4 4 11.1-0.4 0.7-6.3-6.7-7.1-6-0.8 0.7 4.3 8.7 4.4 10.2 0.1 1.6 0.1 4.5 3.8 11.9 0 0 3.1 10.4 5.3 7.1z"/>
				<path id="&lt;Path&gt;" class="s10" d="m669.2 224.9c-0.6-0.9-8.4 2.7-12.1 6.2 0.4 1.9 1.3 4.5 3.3 8.5 0 0 3.1 10.4 5.3 7.1 1.7-2.5 5.1-13.1 6.4-19.3-3.7 0.1-2.2-1.6-2.9-2.5z"/>
				<path id="&lt;Path&gt;" class="s1" d="m523.6 160.2c0.8-0.9 1.6-1.6 2.5-2.1 0.9-0.6 2-0.9 3.1-1.1 1.1-0.2 2.2-0.2 3.3 0.1 1.1 0.2 2.1 0.8 3 1.4 0.4 0.4 0.5 1 0.1 1.4-0.2 0.3-0.6 0.5-0.9 0.4h-0.2c-0.8-0.1-1.6-0.4-2.4-0.4q-1.2-0.1-2.4 0.1c-0.8 0.2-1.6 0.4-2.4 0.6-0.8 0.3-1.6 0.7-2.3 1l-0.2 0.1c-0.5 0.2-1.1 0-1.3-0.5-0.2-0.3-0.1-0.8 0.1-1z"/>
				<path id="&lt;Path&gt;" class="s1" d="m545.4 156.8c0.6-0.9 1.2-1.4 2-1.9 0.8-0.5 1.7-0.8 2.7-0.9 1 0 2 0.1 2.9 0.6 0.8 0.3 1.5 1 2.1 1.6 0.3 0.5 0.3 1.1-0.2 1.5-0.2 0.2-0.6 0.3-0.9 0.1h-0.2c-0.7-0.2-1.2-0.5-1.8-0.6-0.6-0.1-1.1-0.1-1.7-0.1q-0.8 0.1-1.6 0.4c-0.6 0.2-1.2 0.5-1.8 0.7l-0.3 0.1c-0.5 0.1-1.1-0.1-1.3-0.7-0.1-0.3 0-0.6 0.1-0.8z"/>
				<g id="&lt;Group&gt;">
					<g id="&lt;Group&gt;">
						<g id="&lt;Group&gt;">
							<path id="&lt;Path&gt;" class="s6" d="m530.2 163.9c-1.3 0.1-2.3 1.6-2.1 3.3 0.1 1.7 1.4 3 2.7 2.9 1.4-0.2 2.3-1.7 2.1-3.4-0.1-1.7-1.4-3-2.7-2.8z"/>
							<path id="&lt;Path&gt;" class="s6" d="m551.2 161.8c-1.4 0.1-2.3 1.6-2.2 3.3 0.2 1.8 1.4 3 2.8 2.9 1.3-0.1 2.3-1.6 2.1-3.3-0.1-1.7-1.4-3-2.7-2.9z"/>
							<path id="&lt;Path&gt;" class="s6" d="m528.5 165.9c-1.4 0-2.2-1-2.7-0.6-0.4 0.4 1.7 2.4 2.8 2.4 1.1 0.1-0.1-1.8-0.1-1.8z"/>
							<path id="&lt;Path&gt;" class="s6" d="m553.2 163.5c1.3-0.3 1.8-1.4 2.4-1.2 0.5 0.3-1.2 2.7-2.3 3-1 0.3-0.1-1.8-0.1-1.8z"/>
						</g>
					</g>
					<g id="&lt;Group&gt;">
						<path id="&lt;Path&gt;" class="s14" d="m542.9 177.1q-0.5 0-1-0.2c-0.2-0.1-0.3-0.3-0.3-0.5 0.1-0.2 0.3-0.3 0.5-0.2 1.1 0.4 2.2 0 2.8-0.4 0.2-0.3 0.6-0.8 0.5-1.5-0.2-0.5-0.8-1.5-1.5-2.5-1.3-1.9-2.8-4-2.3-5.7 0-0.2 0.3-0.3 0.5-0.2 0.2 0 0.3 0.2 0.2 0.4-0.3 1.3 1.1 3.4 2.2 5.1 0.8 1.1 1.5 2.1 1.6 2.8 0.2 0.8-0.1 1.6-0.7 2.1-0.7 0.6-1.6 0.9-2.5 0.8z"/>
					</g>
					<g id="&lt;Group&gt;">
						<path id="&lt;Path&gt;" class="s15" d="m543.4 187.7c-3.1 0.3-6.5-2.2-8.6-4.3-0.2-0.1-0.3-0.3-0.2-0.6 0.1-0.2 0.4-0.2 0.6-0.1 5.6 1.2 11.5 0.4 15.8-1.8 0.2-0.1 0.4-0.1 0.6 0 0.2 0.2 0.1 0.4 0 0.7-1.4 2.7-5 5.8-8.2 6.1z"/>
					</g>
					<path id="&lt;Path&gt;" class="s15" d="m544.8 174.5c0 0.5-0.6 1-1.4 1-0.8 0.1-1.6-0.2-1.6-0.7-0.1-0.5 0.6-0.9 1.4-1 0.8-0.1 1.5 0.2 1.6 0.7z"/>
					<path id="&lt;Path&gt;" class="s15" d="m546 188.9c0 0.5-0.6 0.9-1.4 1-0.8 0.1-1.5-0.2-1.6-0.7 0-0.5 2.9-0.8 3-0.3z"/>
					<path id="&lt;Path&gt;" class="s10" d="m548.5 191.3c0.1 1-1.4 2.7-3.7 2.9-2.2 0.2-4.3-1.1-4.4-2.1-0.1-0.5 2-0.2 4.1-0.4 2-0.2 4-0.9 4-0.4z"/>
					<path id="&lt;Path&gt;" class="s10" d="m510.6 172.5c0.8 2 0.6 4-0.5 4.4-1.1 0.4-2.6-0.9-3.4-2.9-0.8-2-0.5-4 0.5-4.4 1.1-0.4 2.6 0.9 3.4 2.9z"/>
					<path id="&lt;Path&gt;" class="s16" d="m522.6 177c0.1 2.8 3 4.9 6.5 4.7 3.5-0.1 6.2-2.5 6.1-5.3-0.1-2.7-3-4.8-6.5-4.7-3.5 0.2-6.3 2.6-6.1 5.3z"/>
					<path id="&lt;Path&gt;" class="s16" d="m555 179.5c-3.5 0.2-6.5-1.9-6.6-4.7-0.1-2.7 2.6-5.1 6.1-5.3q1 0 2 0.2c0 3.3-0.2 6.4-0.6 9.7-0.4 0.1-0.5 0.1-0.9 0.1z"/>
				</g>
				<g id="&lt;Group&gt;">
					<path id="&lt;Path&gt;" class="s1" d="m508.1 179.5c0 1.5 1.3 2.8 2.8 2.8 1.5 0 2.7-1.3 2.7-2.8 0-1.5-1.2-2.7-2.7-2.7-1.5 0-2.8 1.2-2.8 2.7z"/>
				</g>
				<path id="&lt;Path&gt;" class="s17" d="m560.6 469.5c0.7-3.9 17.2-10.1 19.9-6.9 2.8 3.2-0.3 63.2-4.4 65-4 1.7-16.8-49.7-15.5-58.1z"/>
				<path id="&lt;Path&gt;" class="s17" d="m496.1 473.3c1-3.8 18.1-8.2 20.5-4.8 2.4 3.5-7 62.9-11.2 64.2-4.3 1.3-11.6-51.2-9.3-59.4z"/>
			</g>
			<g id="&lt;Group&gt;">
				<path id="&lt;Path&gt;" class="s18" d="m383.6 178h82.8v-91.8h-82.8z"/>
				<g id="&lt;Group&gt;">
					<path id="&lt;Path&gt;" class="s1" d="m394.5 165.4h61v-67.6h-61z"/>
				</g>
				<path id="&lt;Path&gt;" class="s13" d="m402 157.3h46v-51.1h-46z"/>
			</g>
			<g id="&lt;Group&gt;">
				<path id="&lt;Path&gt;" class="s18" d="m335.6 285h82.7v-91.7h-82.7z"/>
				<g id="&lt;Group&gt;">
					<path id="&lt;Path&gt;" class="s1" d="m346.4 272.5h61v-67.7h-61z"/>
				</g>
				<path id="&lt;Path&gt;" class="s13" d="m354.4 262.7h45.1v-50h-45.1z"/>
			</g>
		</g>
		<g id="&lt;Group&gt;">
			<g id="&lt;Group&gt;">
				<path id="&lt;Path&gt;" class="s0" d="m271.7 855.6c-122.8 29.9-230.7-211.1-201.3-403.2 18.9-123.3 96-201.3 191.2-160.3 98.4 42.4 75.4 195.9 75.4 274.4 0 84.1 82.7 253.1-65.3 289.1z"/>
				<g id="&lt;Group&gt;">
					<path id="&lt;Path&gt;" class="s15" d="m102.2 608.1c-7.5 0.9-14.7-7.8-16.1-19.3-1.4-11.5 3.7-21.6 11.2-22.5 7.5-0.9 14.8 7.8 16.1 19.3 1.4 11.5-3.6 21.6-11.2 22.5z"/>
					<path id="&lt;Path&gt;" class="s15" d="m128 689.7c-9.7 2.9-22.3-10.6-28-30.1-5.7-19.5-2.4-37.7 7.3-40.5 9.8-2.9 15.4 12.2 21.1 31.7 5.7 19.5 9.4 36-0.4 38.9z"/>
					<path id="&lt;Path&gt;" class="s15" d="m141.1 712.3c-3 3-7.9 3.1-10.9 0.1-3.1-3-3.1-7.9-0.1-10.9 3-3.1 7.8-3.1 10.9-0.2 3.1 3 3.1 7.9 0.1 11z"/>
				</g>
			</g>
			<g id="&lt;Group&gt;">
				<path id="&lt;Path&gt;" class="s2" d="m379.1 892.9c0 14.3-72.5 25.8-161.8 25.8-89.4 0-161.9-11.5-161.9-25.8 0-14.2 72.5-25.7 161.9-25.7 89.3 0 161.8 11.5 161.8 25.7z"/>
				<g id="&lt;Group&gt;">
					<path id="&lt;Path&gt;" class="s1" d="m187.4 377.8c-5-5.2-9.3-18.1-8.1-28 1.3-10.1 7.9-16.7 14.7-20.2 11.8-6.1 23.6-5 30-3.4 15.9 4 21.1 25 16.1 37.4-3.6 8.8-40.3 12.3-43.4 16.3 0 0-4.4 3.2-9.3-2.1z"/>
				</g>
				<path id="&lt;Path&gt;" class="s8" d="m240.6 343.7c-2.5-5.4-8.8-7.9-11.9-12.8q-2.2-0.7-4.7-0.7c-6.6 0.1-18.1 2.1-30 5.4-2.2 0.7-4.4 1.3-6.2 2.1-1.4 8.1 4.3 14.2 2.6 19.3-1.1 4.3-3.3 8.6-7.8 13 1.4 3.2 3 6 4.8 7.8 4.9 5.3 9.3 2.1 9.3 2.1 3.1-4 39.8-7.5 43.4-16.3 2.3-5.8 2.6-13.4 0.5-19.9z"/>
				<path id="&lt;Path&gt;" class="s9" d="m237.4 344c0 0 6.4 34.6 1.9 45.3-4.5 10.6-12.3 9.8-12.3 9.8l2 15.1c0 0 12.9-1.1 14.1 6.8 1.5 9.9 4.7 27.7-16.3 33.5-21.1 5.9-29.3-11.3-34.5-19.9-5.1-8.6 7.5-21.2 7.5-21.2 0 0 4-16.3 2.6-27.8 0 0-10 0.3-10.1-10.2 0-10 7.3-7.5 7.6-4.9 0 0 2.5-3 1.5-7.2-1.2-5-14.6-21.2-12.2-24.8 5.4-8.4 12.6-10.3 20.8-10.7 21.4-0.9 27.4 16.2 27.4 16.2z"/>
				<path id="&lt;Path&gt;" class="s10" d="m243.1 421c-1.2-7.9-14.1-6.8-14.1-6.8l-0.6-4c-22.1-1-20.3-47-24-51.6-3.7-4.6-16.7-13.6-11.6-24.5-1.3 1.2-2.5 2.7-3.6 4.4-2.4 3.6 11 19.8 12.2 24.8 1 4.2-1.5 7.2-1.5 7.2-0.3-2.6-7.6-5.1-7.6 4.9 0.1 10.5 10.1 10.2 10.1 10.2 1.4 11.5-2.6 27.8-2.6 27.8 0 0-12.6 12.6-7.5 21.2 5.2 8.6 13.4 25.8 34.5 19.9 21-5.8 17.8-23.6 16.3-33.5z"/>
				<path id="&lt;Path&gt;" class="s10" d="m243.1 421c-1.2-7.9-14.1-6.8-14.1-6.8l-2-15.1c0 0-9.3 0.1-15-3-5.7-3.1-9.6-10.5-9.6-10.5 1.4 11.5-2.6 27.8-2.6 27.8 0 0-12.6 12.6-7.5 21.2 5.2 8.6 13.4 25.8 34.5 19.9 21-5.8 17.8-23.6 16.3-33.5z"/>
				<g id="&lt;Group&gt;">
					<path id="&lt;Compound Path&gt;" fill-rule="evenodd" class="s6" d="m192 370.7l13.9-7.5q0.1 0 0.1 0c1.9-1.7 11.6-3.4 14.6-2.7q0 0 0 0c3.5-1.8 6.6-1.4 7.6-1.2 2.6-1.7 13.1-3 15-1.8 1.3 0.8 1.5 3.1 1.4 4.3 0 2.5-0.8 5.4-2.4 6.4q-0.1 0.1-0.2 0.1c-2.2 1.1-10.4 2.7-11.8 1.5-0.9-0.8-3.3-4.9-3.3-7.8q0-0.7 0.2-1.2c-1.1-0.1-2.9 0-5 0.8q0.4 0.5 0.6 1.1c0.9 2.8-0.2 7.5-0.8 8.4q-0.2 0.4-0.8 0.7c-2.5 1.3-9.2 1.9-11.1 1.5-1.9-0.4-3.5-3-4.3-5.4-0.2-0.6-0.4-1.6-0.5-2.5l-12.4 6.7q0 0 0 0c-0.4 0.2-0.9 0.1-1.1-0.3-0.2-0.4-0.1-0.9 0.3-1.1zm39.2-2.2c0.9 0.5 8-0.5 10.2-1.7 0.9-0.5 1.6-2.7 1.6-5 0.1-1.8-0.4-2.8-0.7-3-1.2-0.7-11.7 0.5-13.4 1.9q-0.4 0.4-0.4 1.3c0 2.3 2.2 6 2.7 6.5zm-20.9 3.2c2.4 0.5 9.5-0.7 10.2-1.4 0.4-0.7 1.4-4.8 0.7-7.1q-0.3-0.8-0.8-1.1c-1.9-0.7-10.7 0.9-12.9 2q-0.3 0.2-0.5 0.3c-0.2 0.3-0.3 1.3 0.2 3 0.8 2.2 2.1 4.1 3.1 4.3z"/>
					<path id="&lt;Path&gt;" class="s6" d="m235.1 364c0.2 1.2-0.5 2.3-1.4 2.3-1 0.1-1.8-0.8-1.9-2-0.1-1.2 0.5-2.2 1.4-2.3 1-0.1 1.8 0.8 1.9 2z"/>
					<path id="&lt;Path&gt;" class="s6" d="m217.7 366.6c0.1 1.2-0.5 2.3-1.4 2.3-1 0.1-1.8-0.8-1.9-2-0.2-1.2 0.5-2.2 1.4-2.3 1-0.1 1.8 0.8 1.9 2z"/>
					<g id="&lt;Group&gt;">
						<path id="&lt;Path&gt;" class="s14" d="m228.3 378.7c-0.2 0-0.4-0.1-0.5-0.3-0.1-0.2 0-0.6 0.3-0.6 2.5-0.2 4.9-0.5 4.9-2.4 0-1.8-3.5-4.3-6.6-7.5-0.1-0.2-0.1-0.5 0.1-0.7 0.2-0.2 0.5-0.2 0.7 0 4.5 4.8 6.7 5.8 6.7 8.4 0 2.6-2.7 3.1-5.5 3.1q-0.1 0-0.1 0z"/>
					</g>
					<path id="&lt;Path&gt;" class="s7" d="m218.9 381.4c0 0 6.2 3 14.1 1.5 0 0-2.3 4.4-8.2 3.4-4.5-0.7-5.9-4.9-5.9-4.9z"/>
					<g id="&lt;Group&gt;">
						<path id="&lt;Path&gt;" class="s1" d="m228.6 354c0.6-0.8 1.2-1.3 2-1.7 0.8-0.5 1.6-0.7 2.5-0.8 1.8-0.3 3.8 0.2 5.1 1.3 0.4 0.4 0.5 1 0.1 1.4-0.2 0.3-0.5 0.4-0.9 0.4h-0.1c-0.7-0.1-1.3-0.3-1.9-0.3-0.7 0-1.3 0-1.9 0.1q-0.9 0.2-1.8 0.4c-0.6 0.2-1.3 0.5-1.9 0.6l-0.2 0.1c-0.5 0.2-1-0.1-1.2-0.6-0.1-0.4 0-0.7 0.2-0.9z"/>
					</g>
					<g id="&lt;Group&gt;">
						<path id="&lt;Path&gt;" class="s1" d="m207 357.5c0.6-1 1.3-1.7 2.2-2.3q1.4-0.9 3-1.3c1.1-0.2 2.3-0.2 3.4 0.1 1.2 0.3 2.2 1 2.9 1.8 0.4 0.5 0.3 1.1-0.1 1.5q-0.3 0.2-0.7 0.2h-0.2c-0.9-0.1-1.6-0.2-2.4-0.1-0.7 0.1-1.4 0.1-2.1 0.3-0.7 0.2-1.5 0.4-2.3 0.6-0.7 0.2-1.6 0.5-2.5 0.7h-0.2c-0.5 0.1-1-0.3-1.1-0.8q-0.1-0.4 0.1-0.7z"/>
					</g>
					<path id="&lt;Path&gt;" class="s10" d="m229.6 389.1c0 0.9-1.8 1.6-3.9 1.6-2.2 0-4-0.7-4-1.6 0-0.8 7.9-0.8 7.9 0z"/>
					<g id="&lt;Group&gt;">
						<path id="&lt;Path&gt;" class="s1" d="m232.6 375.1c0 0.6-0.7 1.1-1.5 1.1-0.9 0-1.6-0.5-1.6-1.1 0-0.6 0.7-1.1 1.6-1.1 0.8 0 1.5 0.5 1.5 1.1z"/>
					</g>
				</g>
				<path id="&lt;Path&gt;" class="s9" d="m363.9 567.1c0.8-0.5 12.4 6 13 3.7-0.7-5.1-21.5-12.7-21.3-13.8 0.3-1 10 0.9 12.2 0.2 2.6-0.7-6.7-5.9-11.6-6.5-4.6-0.5-8.1 1.7-11.5 2.6-0.2 0.1-5.3-2.2-12.5-5.2-3.2 5.4-6.5 10.9-9.2 16.5 6.6 1.7 11.1 2.8 11.1 2.8 0 0 13.3 8.3 22.5 12 4.5 1.8 9.6 4.4 10.8 2.8 1.1-1.6-10.2-5.7-9.4-6.8 0.9-1.1 14.5 6.9 15.9 5.3 1.4-1.6-12.6-8.4-12.1-9.2 0.6-0.8 15.4 7.2 16.8 5.6 1.3-1.6-15.4-9.4-14.7-10z"/>
				<path id="&lt;Path&gt;" class="s10" d="m358 575.4c0.3-0.4 2.2 0.3 4.5 1.4-4.2-3-7.4-7.5-8.2-14.9 0-2.3-7 9.4-11.7 4.7-5.2-5.2-1.4-9.2 0.9-13.7-1.9-0.8-6.1-2.6-11.3-4.8-3.2 5.4-6.5 10.9-9.2 16.5 6.6 1.7 11.1 2.8 11.1 2.8 0 0 13.3 8.3 22.5 12 4.5 1.8 9.6 4.4 10.8 2.8 1.1-1.6-10.2-5.7-9.4-6.8z"/>
				<path id="&lt;Path&gt;" class="s9" d="m156.9 844.1l-3.7 30.6 13.8 3.8 10.7-28.7z"/>
				<path id="&lt;Path&gt;" class="s9" d="m243.4 852.9l3.1 23.9h15.2v-27.8z"/>
				<path id="&lt;Path&gt;" class="s19" d="m151.2 857.3l26.8 3.1 37.2-207.1c0 0 15.2 95.5 15.8 103.5 0.7 8 6.4 103.6 6.4 103.6l30.6-2.6c0 0 4.5-103.9 4.5-116 0-12.1-3.2-164.4-3.2-164.4h-103.9z"/>
				<path id="&lt;Path&gt;" class="s20" d="m269.7 596.5c-0.3-11.7-0.4-19.1-0.4-19.1h-103.9l-1.2 24.5c35.9 1.9 71.7 5.1 105.5-5.4z"/>
				<path id="&lt;Path&gt;" class="s20" d="m263.1 741.4c-6 6.2-9.8-3.7-15.2-11.1-5.4-7.4-17-76.2-32.5-107.1-14.8 41.3-28 101.5-31.7 105.5-3.8 4-22.8 11.2-25.7-5.2l-6.8 133.8 26.8 3.1 37.2-207.1c0 0 15.2 95.5 15.8 103.5 0.7 8 6.4 103.6 6.4 103.6l30.6-2.6c0 0 4.5-103.9 4.5-116 0-7.7-1.7-90.6-2.6-136.5-5.4 35.2-0.7 129.8-6.8 136.1z"/>
				<path id="&lt;Path&gt;" class="s6" d="m129.5 898.1c-0.5 6.3 10.8 9.2 23.3 2.2 12.6-7 14.9-9.5 16.6-11.6 1.7-2.2 2.4-14.5 1-17.4-1.3-2.9-13.4-5.9-17.3-2.9-4 3-6.5 9.2-10.2 13.5-3.7 4.3-12.9 7.8-13.4 16.2z"/>
				<g id="&lt;Group&gt;" style="opacity: .2">
					<path id="&lt;Path&gt;" class="s1" d="m152.2 891.1c2.9-1.5 12.1-10.7 15.7-19.6-3.7-1.8-10.7-2.9-13.5-0.8-3.5 2.7-5.9 8.3-9.2 12.2-1.7 2-4.7 3.8-7.2 6.1 3.1 5 11.2 3.6 14.2 2.1z"/>
				</g>
				<path id="&lt;Path&gt;" class="s6" d="m242.7 871c2.6-3.2 19.4-3.6 23.7-1.7 4.3 1.9 10 7.8 15.7 9.7 5.7 1.8 27.1 7.9 23.1 15.1-4 7.3-61.5 0.7-63.8-1-2.3-1.7-2.7-17.1 1.3-22.1z"/>
				<g id="&lt;Group&gt;" style="opacity: .2">
					<path id="&lt;Path&gt;" class="s1" d="m265.2 884.2c8.5 4.3 21.6 6.2 31 2.2-5.2-3-13.1-5.3-16.2-6.3-5-1.6-10-6.9-13.8-8.5-1.7-0.8-5.9-1.1-10-1-2.9 8.4 5.5 11.9 9 13.6z"/>
				</g>
				<g id="&lt;Group&gt;">
					<path id="&lt;Path&gt;" class="s21" d="m298.4 524.1c-2.5-2.6-14.2-88.6-23.6-96.5-10-8.4-43.9-16-43.9-16l-1.9-8.5-28.2-0.6-2.1 8.7c0 0-10.7 3.9-20 8.2-3.4-1.4-6.8-3-9.2-4.2-8.2 12.4-29.4 45.5-34.5 66.8-2.8 11.4 2 31 4.3 31.9 4.2 1.7 20.8-3.8 26-13.9 0 0 0.5 56.2-5.9 82.1 0 0 47.4 22.9 118.7 0 0 0-5.2-39.3-6.2-63.9 3.5 16.9 7.2 25.3 9.2 28.1 3.8 5.2 42.7 20.4 53.8 23.2 1.8-4.7 2.8-15 6.1-18.8-9.9-4.2-40.1-23.9-42.6-26.6z"/>
					<path id="&lt;Path&gt;" class="s22" d="m269.4 461.2c-0.7-4.4-5.4-14.6-8.1-11.6-2.7 3.1 4.1 55.1-4 62-8.2 7-65 0.5-72.3-11.6-7.2-12.1-0.8-30.8-0.2-50.8 0.1-1.3-7.1 10.4-9.7 10.1-0.6-0.1 9.7-34.5 9.2-34.6-2-0.3-5.3 6.1-6.7 6.1-8.3 20.2-16.1 62.5-25.3 64.7-9.2 2.2-17.3-13.5-14.2-23.3-1.3 3.4-2.4 6.7-3.1 9.8-2.8 11.4 2 31 4.3 31.9 4.2 1.7 20.8-3.8 26-13.9 0 0 0.5 56.2-5.9 82.1 0 0 47.4 22.9 118.7 0 0 0-5.2-39.3-6.2-63.9 3.5 16.9 7.2 25.3 9.2 28.1 3.8 5.2 42.7 20.4 53.8 23.2 0.9-2.4 1.6-6.3 2.5-9.9-18.5-4.2-47.5-19.4-49.7-23.2-2.2-3.8-17.7-71.8-18.3-75.2z"/>
					<path id="&lt;Path&gt;" class="s18" d="m270.9 430.3c2.5 2.4-25.5-2.3-28.9-3.4-2.6-0.8-9.5-4.7-7.2-8.1 2.4-3.4 33.5 9 36.1 11.5z"/>
					<path id="&lt;Path&gt;" class="s18" d="m296.9 527.1c1.7 0.6 29.6 17.2 30 19.6 0.5 2.3-33.6-11.7-34.4-14-0.7-2.4 3.1-6.2 4.4-5.6z"/>
					<path id="&lt;Path&gt;" class="s18" d="m169.3 421.9c2.1-1.1 4.1 1 4.4 2.8 0.3 1.9-24.2 41.3-26.4 40.4-2.2-0.8 18.4-41.2 22-43.2z"/>
				</g>
				<g id="&lt;Group&gt;">
					<path id="&lt;Path&gt;" class="s6" d="m202.1 361.5l15.7 39.7c0.6 1.7-0.2 3.7-1.9 4.4l-20.9 8.2c-1.7 0.6-3.7-0.2-4.4-1.9l-15.6-39.7c-0.7-1.8 0.2-3.7 1.9-4.4l20.9-8.2c1.7-0.7 3.7 0.2 4.3 1.9z"/>
					<g id="&lt;Group&gt;" style="opacity: .3">
						<path id="&lt;Path&gt;" class="s1" d="m205.1 376.9c-0.3 0-0.6-0.2-0.7-0.5l-4.5-11.2c-0.4-1.2-1.8-1.8-2.9-1.3l-7.1 2.8c-0.4 0.1-0.9-0.1-1-0.5-0.2-0.4 0-0.8 0.4-0.9l7.1-2.8c2-0.8 4.2 0.2 4.9 2.1l4.5 11.3c0.1 0.4-0.1 0.8-0.5 1q-0.1 0-0.2 0z"/>
					</g>
					<g id="&lt;Group&gt;">
						<path id="&lt;Path&gt;" class="s1" d="m181.6 370.6c1.2-0.5 2.6 0.1 3.1 1.3 0.4 1.2-0.2 2.6-1.4 3-1.2 0.5-2.5-0.1-3-1.3-0.5-1.2 0.1-2.6 1.3-3z"/>
					</g>
				</g>
				<g id="&lt;Group&gt;">
					<path id="&lt;Path&gt;" class="s9" d="m190 398c-3.4-0.1-6.8-0.4-6.9-0.9-0.1-0.4 13.7 1 13.2-1.4-0.3-1.1-4-2-8.1-2.2-3.2-0.2-6.8 0.3-6.8 0 0-0.4 14.1-0.1 12.7-3.1-0.5-1.2-8.1-1.1-10.1-0.9-1.9 0.1-4.3 0.5-4.5 0.2 0 0 1.3-2.1 2.4-2.3 1.3-0.2 9.9 2.3 10.7 0 0.6-1.7-12.7-3.9-13.4-3.7-2.6 0.7-6.7 5.2-7.3 7.2-1.1 3.9 3.1 18.7 2.4 20.3-0.1 0.2-1.3 1.9-3.2 4.8 4 1.9 9.7 4.4 13.8 5.9 1.1-3.1 1.8-5.1 1.9-5.5 2.1-7.8-0.6-15.3-0.6-15.3 0 0 9.7 1.1 10.6-1.5 0.4-1.4-3.2-1.6-6.8-1.6z"/>
				</g>
				<g id="&lt;Group&gt;">
					<path id="&lt;Path&gt;" class="s10" d="m171.9 391.1c-1 4.2 3.1 18.5 2.4 20.1-0.1 0.2-1.3 1.9-3.2 4.8 4 1.9 9.7 4.4 13.8 5.9 1.1-3.1 1.8-5.1 1.9-5.5 2.1-7.8-0.6-15.3-0.6-15.3 0 0 9.1 1 10.4-1.3-3.4 0.7-12.1 0.2-13.4 0.1-1.3-0.2-6.9-3.1-11.3-8.8z"/>
				</g>
				<path id="&lt;Path&gt;" class="s23" d="m218.8 332.4c0 1.3-3.4 0.9-7.6 0.9-4.1 0-7.5 0.4-7.5-0.9 0-1.2 3.4-2.2 7.5-2.2 4.2 0 7.6 1 7.6 2.2z"/>
			</g>
		</g>
		<g id="&lt;Group&gt;">
			<g id="&lt;Group&gt;">
				<path id="&lt;Path&gt;" class="s0" d="m763.5 484.9c107.8-51.2 248.8 100.8 169.7 289.9-35.9 85.9-123.3 90.9-208.3 92.2-101.8 1.4-177.6-9.3-189.4-78.2-20.6-119.9 105.7-89.5 143.2-150.2 37.5-60.7 6.6-116.5 84.8-153.7z"/>
				<g id="&lt;Group&gt;">
					<path id="&lt;Path&gt;" class="s15" d="m555 754.7c-5.4-1.1-8.3-8.6-6.7-16.7 1.7-8.1 7.3-13.8 12.6-12.7 5.3 1 8.3 8.5 6.7 16.6-1.7 8.1-7.3 13.9-12.6 12.8z"/>
					<path id="&lt;Path&gt;" class="s15" d="m569.6 814.7c-9.3 2.3-19.6-7.3-23.1-21.3-3.6-14.1 1.1-27.4 10.3-29.7 9.2-2.3 13 8.5 16.5 22.6 3.5 14.1 5.5 26.1-3.7 28.4z"/>
					<path id="&lt;Path&gt;" class="s15" d="m580.7 831.2c-2.4 1.9-5.9 1.5-7.8-0.8-1.9-2.4-1.5-5.9 0.9-7.8 2.3-1.9 5.8-1.5 7.7 0.9 1.9 2.3 1.5 5.8-0.8 7.7z"/>
				</g>
			</g>
			<path id="&lt;Path&gt;" class="s2" d="m927.2 895.9c0 14.7-91.8 26.6-205 26.6-113.2 0-205-11.9-205-26.6 0-14.7 91.8-26.6 205-26.6 113.2 0 205 11.9 205 26.6z"/>
			<g id="&lt;Group&gt;">
				<path id="&lt;Path&gt;" class="s3" d="m795.1 897q-0.1 0-0.3-0.1c-1.6-0.1-2.8-1.6-2.7-3.3l12.6-118.3c0.1-1.5 1.4-2.6 2.9-2.6l72.9-1.7c1.6 0 2.9 1.1 3.1 2.7l11.9 118.4c0.2 1.6-1 3.1-2.6 3.3-1.7 0.2-3.2-1-3.3-2.7l-11.7-115.6-67.6 1.5-12.2 115.7c-0.2 1.5-1.5 2.7-3 2.7z"/>
			</g>
			<g id="&lt;Group&gt;">
				<path id="&lt;Path&gt;" class="s3" d="m726.4 897q-0.2 0-0.4-0.1c-1.6-0.1-2.8-1.6-2.6-3.3l12.5-118.3c0.1-1.5 1.4-2.6 2.9-2.6l73-1.7c1.5 0 2.9 1.1 3 2.7l12 118.4c0.1 1.6-1.1 3.1-2.7 3.3-1.6 0.2-3.1-1-3.3-2.7l-11.7-115.6-67.5 1.5-12.3 115.7c-0.1 1.5-1.4 2.7-2.9 2.7z"/>
			</g>
			<path id="&lt;Path&gt;" class="s21" d="m900.1 588.8c7.4 7 1.5 134.9-6.1 141.4-7.6 6.4-67.3 0-67.3 0 0 0-15.1-131.1-7.3-141.4 7.7-10.2 71.1-9.1 80.7 0z"/>
			<path id="&lt;Path&gt;" class="s18" d="m886.1 588.8c7.4 7 1.5 134.9-6.1 141.4-7.6 6.4-67.3 0-67.3 0 0 0-15.1-131.1-7.3-141.4 7.7-10.2 71.1-9.1 80.7 0z"/>
			<path id="&lt;Path&gt;" class="s18" d="m888.2 742.7c6.3 3.4 5.3 34.1 0 37.7-5.4 3.5-136 7.7-140.6 4.1-4.6-3.6-9.7-29.8 0-33.4 9.8-3.6 58.1-3 73.1-4.2 14.9-1.2 59.7-8.4 67.5-4.2z"/>
			<path id="&lt;Path&gt;" class="s21" d="m742.2 768.2c-0.6 10.4 3.8 15.1 5.4 16.3 4.6 3.6 135.2-0.5 140.6-4.1 3.4-2.4 5.5-15.2 4-26.8-23 14-99.4 20.3-150 14.6z"/>
			<g id="&lt;Group&gt;">
				<path id="&lt;Path&gt;" class="s9" d="m717.4 677.9l-0.7-12.2c0 0-15.9-0.2-19.9 1.2-4 1.4-17.5 7.1-20.1 9.3-2.7 2.2-11.2 6-11.1 7.4 0.1 1.3 2.9 2.4 6.5 1.7 0 0-3.2 4.1-1.7 5.1 1.4 1.1 6.8 0.9 8.4-0.4 1.5-1.2 7.3-8 8.2-8.8 0.4-0.3 1.8-0.9 3.5-1.3-2.7 3.2-6.4 7.9-4.9 8.9 4.3 2.8 9.7-4 12.8-8.3 4.5 1.2 16.9-1.6 19-2.6z"/>
				<path id="&lt;Path&gt;" class="s10" d="m681 673.7c-2 1-3.6 1.9-4.3 2.5-2.7 2.2-11.2 6-11.1 7.4 0.1 1.3 2.9 2.4 6.5 1.7 0 0-3.2 4.1-1.7 5.1 1.4 1.1 6.8 0.9 8.4-0.4 1.5-1.2 7.3-8 8.2-8.8 0.4-0.3 1.8-0.9 3.5-1.3-2.7 3.2-6.4 7.9-4.9 8.9 4.3 2.8 9.7-4 12.8-8.3 4.5 1.2 16.9-1.6 19-2.6l-0.4-5.9c-10.4 2.2-27.9 8-36 1.7z"/>
				<g id="&lt;Group&gt;">
					<path id="&lt;Path&gt;" class="s6" d="m761.2 698.6h-139c-2 0-3.6-1.6-3.6-3.5 0-2 1.6-3.6 3.6-3.6h139c2 0 3.6 1.6 3.6 3.6 0 1.9-1.6 3.5-3.6 3.5z"/>
					<path id="&lt;Path&gt;" class="s17" d="m694 694.7h-72.5c-1.6 0-3.1-1-3.6-2.6l-21.4-63.7c-0.9-2.4 1-4.9 3.5-4.9h71.1c1.6 0 3 1 3.5 2.4l22.9 63.8c0.9 2.4-0.9 5-3.5 5z"/>
					<g id="&lt;Group&gt;" style="opacity: .3">
						<path id="&lt;Path&gt;" class="s1" d="m647.7 654.3c2.9 3.4 3 8 0.3 10.2-2.6 2.3-7.1 1.4-10-2.1-2.9-3.4-3-7.9-0.4-10.2 2.7-2.3 7.2-1.3 10.1 2.1z"/>
					</g>
					<g id="&lt;Group&gt;" style="opacity: .3">
						<path id="&lt;Path&gt;" class="s1" d="m680.9 656.5c-0.3 0-0.6-0.2-0.7-0.5l-10.2-28h-25.2c-0.4 0-0.8-0.3-0.8-0.7 0-0.4 0.4-0.8 0.8-0.8h25.8c0.3 0 0.6 0.2 0.7 0.5l10.3 28.5c0.2 0.4 0 0.8-0.4 1q-0.1 0-0.3 0z"/>
					</g>
				</g>
			</g>
			<g id="&lt;Group&gt;">
				<path id="&lt;Path&gt;" class="s14" d="m780.9 603.2c7-10.5 13.2-10.5 20.9-4.6 7.6 6 1.7 23.3-4.3 30.9-7.7 9.8-24.5 37.5-32.7 41.7-9.6 4.8-64.6 11.9-64.6 11.9l-6.9-15.6c0 0 53.8-18.7 57.5-20.7 3.7-2 22.4-32.1 30.1-43.6z"/>
				<path id="&lt;Path&gt;" class="s7" d="m762.1 659.6c-2.6 1.5-54 16.9-58.9 15.2-2.7-1-5-5.7-6.3-8.6-1.8 0.6-2.9 1-2.9 1l6.2 13.9c0 0 55-7.1 64.6-11.9 8.2-4.2 25-31.9 32.7-41.7 4.6-5.9 9.2-19.6 7.5-27.4-13.5 23.3-40 57.9-42.9 59.5z"/>
				<g id="&lt;Group&gt;" style="opacity: .3">
					<path id="&lt;Path&gt;" class="s1" d="m780.6 609c2.9 0.1-3.2 12.8-4.4 15.2-1.2 2.3-15.4 19.8-16.4 17.7-0.9-1.8 19.2-32.9 20.8-32.9z"/>
				</g>
			</g>
			<path id="&lt;Path&gt;" class="s10" d="m797.2 571.7l3.7 18.6-12.2 8.3c0 0 6.3 20.7 17 20.7 10.8 0 30.9-34.3 30.9-34.3l-16.2-2.5-8.7-23.7z"/>
			<g id="&lt;Group&gt;">
				<path id="&lt;Path&gt;" class="s1" d="m824.7 497.4c-8.5-4.6-18.7-2.3-22.7 5.2q-0.5 0.7-0.8 1.5c-9.8-1.3-21.9 1.2-31.8 13.5-14.5 18.1-4.6 37 4.9 28.5 4.7-4.2 34.5 17.9 41.5 17 8.6-1.2 11.6-15.5 11.6-22.9 0-4.2 0.3-9.6-0.9-15.1 2.7-1.2 4.9-3.2 6.3-5.9 4-7.4 0.4-17.2-8.1-21.8z"/>
			</g>
			<path id="&lt;Path&gt;" class="s8" d="m809.9 496c-3.4 1.1-6.9 3.5-8.7 8.1 11.8 1.9 21.2 8.6 25.3 21 2.5-1.2 4.9-3.3 6.3-5.9 1.1-1.9 1.6-4 1.6-6.2-11.1 0-20.8-4.9-24.5-17z"/>
			<path id="&lt;Path&gt;" class="s8" d="m815 538.1c-14-2-28.2-5.8-36.2-17.8-3 11.7-7 18.9-15.2 23.4 2.2 4.6 6.5 6.2 10.7 2.4 4.7-4.2 34.5 17.9 41.5 17 4.2-0.6 7-4.2 8.8-8.6 0.2-8.8-3.1-15.1-9.6-16.4z"/>
			<path id="&lt;Path&gt;" class="s9" d="m770.6 544.9c1.6 11 9.5 35.4 21.9 34.3 12.4-1.1 22.5-14.3 21.6-23.4 0 0 0.8 1.4 3.2 0.6 2.3-0.8 4-13.9-1.1-15.2-5.1-1.4-6.3 7.1-6.3 7.1 0 0-7.1-0.9-9.3-7.4 0 0-14.9-1.5-21.6-13.3 0 0-3.5 12.8-8.4 17.3z"/>
			<path id="&lt;Path&gt;" class="s10" d="m809.9 548.3c0 0-7.1-0.9-9.3-7.4 0 0-14.9-1.5-21.6-13.3 0 0-3.5 12.8-8.4 17.3 0.3 1.5 0.6 3.3 1.1 5.3 3.4-3.5 7.1-10.2 8-15.9 3.4 5.2 12.4 8.4 19 9.9 7.8 7.4 11.2 4.1 11.2 4.1z"/>
			<g id="&lt;Group&gt;">
				<path id="&lt;Path&gt;" class="s5" d="m796 550.8c0.3 1.5-0.2 2.8-1.2 3-1 0.2-2-0.8-2.3-2.2-0.3-1.5 0.2-2.8 1.2-3 0.9-0.2 2 0.8 2.3 2.2z"/>
				<path id="&lt;Path&gt;" class="s5" d="m779.3 555c0.3 1.5-0.2 2.8-1.1 3-1 0.2-2.1-0.8-2.4-2.2-0.3-1.5 0.3-2.8 1.2-3 1-0.2 2 0.8 2.3 2.2z"/>
				<g id="&lt;Group&gt;">
					<g id="&lt;Group&gt;">
						<path id="&lt;Path&gt;" class="s1" d="m787.8 546.8q-0.2 0-0.4-0.1c-0.5-0.3-0.7-0.9-0.5-1.4 1.3-2.4 5.2-6.1 10.8-3.3 0.5 0.2 0.7 0.8 0.5 1.3-0.3 0.5-0.9 0.7-1.4 0.5-5.2-2.6-8 2.3-8.1 2.5-0.2 0.3-0.5 0.5-0.9 0.5z"/>
					</g>
				</g>
				<g id="&lt;Group&gt;">
					<g id="&lt;Group&gt;">
						<path id="&lt;Path&gt;" class="s1" d="m772.4 551.7q-0.2 0-0.5-0.1c-0.5-0.3-0.7-0.9-0.4-1.4 0.9-1.8 3.8-4.7 8.4-3 0.5 0.2 0.8 0.8 0.6 1.3-0.2 0.5-0.7 0.8-1.3 0.6-4-1.5-5.8 1.7-5.9 2-0.2 0.4-0.5 0.6-0.9 0.6z"/>
					</g>
				</g>
				<g id="&lt;Group&gt;">
					<g id="&lt;Group&gt;">
						<path id="&lt;Path&gt;" class="s14" d="m787.3 561.9q0.5-0.2 0.8-0.5c0.2-0.1 0.2-0.3 0.1-0.5-0.2-0.1-0.4-0.1-0.5 0-0.8 0.6-1.7 0.7-2.3 0.5-0.3-0.1-0.8-0.4-0.9-1-0.1-0.5 0.2-1.5 0.4-2.5 0.5-2 1.1-4.2 0.2-5.4-0.1-0.1-0.3-0.2-0.4-0.1-0.2 0.1-0.2 0.4-0.1 0.5 0.7 1 0.1 3.1-0.3 4.8-0.3 1.1-0.5 2.1-0.5 2.7 0.1 0.8 0.6 1.3 1.3 1.6 0.7 0.2 1.5 0.2 2.2-0.1z"/>
					</g>
					<path id="&lt;Path&gt;" class="s15" d="m785 560.3c0.2 0.4 0.8 0.6 1.5 0.4 0.7-0.1 1.2-0.6 1.1-1-0.1-0.5-0.8-0.6-1.5-0.5-0.7 0.2-1.2 0.7-1.1 1.1z"/>
					<path id="&lt;Path&gt;" class="s15" d="m788.9 571.5c0.2 0.4 0.8 0.6 1.5 0.4 0.7-0.2 1.2-0.7 1.1-1.1-0.1-0.4-2.7 0.2-2.6 0.7z"/>
					<path id="&lt;Path&gt;" class="s10" d="m787.3 573.5c0.2 0.9 2 1.7 3.9 1.2 1.9-0.4 3.2-2.1 3-3-0.1-0.4-1.8 0.5-3.5 0.9-1.7 0.5-3.5 0.5-3.4 0.9z"/>
					<path id="&lt;Path&gt;" class="s10" d="m813 549.5c-0.1 2.1 0.6 3.8 1.8 3.9 1.1 0.1 2.1-1.5 2.2-3.6 0.2-2.1-0.6-3.8-1.7-3.9-1.1-0.1-2.1 1.5-2.3 3.6z"/>
					<path id="&lt;Path&gt;" class="s24" d="m803.9 555.7c0.8 2.3-1 4.9-3.9 5.8-2.9 0.9-5.8-0.2-6.6-2.5-0.7-2.3 1.1-4.9 4-5.8 2.9-0.9 5.8 0.2 6.5 2.5z"/>
					<path id="&lt;Path&gt;" class="s24" d="m779 567.3c2.9-1 4.6-3.6 3.9-5.8-0.7-2.3-3.7-3.4-6.6-2.5-0.5 0.2-1.3 0.5-1.7 0.8 1.1 3.2 2.2 5.2 3.3 7.7q0.6-0.1 1.1-0.2z"/>
					<g id="&lt;Group&gt;">
						<path id="&lt;Path&gt;" class="s14" d="m786.9 568.8c-2.1 0-3.6-0.8-3.7-0.9-0.2-0.1-0.3-0.4-0.2-0.6 0.1-0.3 0.4-0.4 0.7-0.2 0 0 2.4 1.2 5 0.5q2.8-0.9 4.6-4.3c0.2-0.3 0.5-0.4 0.7-0.2 0.3 0.1 0.3 0.4 0.2 0.6-1.3 2.6-3.1 4.2-5.2 4.8q-1.1 0.3-2.1 0.3z"/>
					</g>
				</g>
			</g>
			<path id="&lt;Path&gt;" class="s9" d="m737.7 840.1l-7.2 52.9c0 0-39.6 0.8-42.1 1-2.6 0.1-2.4-3.1 1.2-4.8 3.6-1.7 23.5-11 23.5-11l4.7-40.3z"/>
			<path id="&lt;Path&gt;" class="s9" d="m779.3 839.9c0 0-14.8 55.6-15.7 57-0.9 1.4-41.7 1.1-43.3 0.3-1.7-0.8-0.7-5.2 2.1-6.2 2.8-1.1 24.8-9.9 24.8-9.9l9.1-43.9z"/>
			<path id="&lt;Path&gt;" class="s25" d="m697.4 883.2c0 0-23.7 5.9-20.3 12.2 2.5 4.5 10.1 4 21.1 3.9 13.3-0.2 36.5-2.3 36.5-5.3 0-1.6-30.6-1.9-30.6-1.9z"/>
			<path id="&lt;Path&gt;" class="s0" d="m701.5 890.7l-4.5-6.1c0 0-8.9 2.2-14.5 5.3 3.3 4.4 12.1 2.5 19 0.8z"/>
			<path id="&lt;Path&gt;" class="s25" d="m730.4 886.8c0 0-25.1 6.8-22.2 12.1 2.9 5.4 13.1 3.4 24.5 3.1 25.3-0.5 37.5-0.4 38.1-3 0.1-0.2 0.4-2.6-0.5-2.5-8.2 0.5-33 0.5-33 0.5z"/>
			<path id="&lt;Path&gt;" class="s0" d="m733.6 894.3l-4-5.9c0 0-9.5 2.6-15.1 5.7 5.3 6 12.9 3.8 19.1 0.2z"/>
			<path id="&lt;Path&gt;" class="s17" d="m865.3 712.3c0 0 15.2 20.3 5.4 36-5.9 9.4-70.3 12.1-72.3 14.1-1 1 0.8 13.5-3.2 32.5-4.4 21.1-14.9 50.3-24.1 80.2l-25.8-3.3c0 0 23.2-107.8 14.5-108.7-8.6-1-19.5 97.5-25.1 108.7l-23.5-2.4c0 0 9.6-121.6 17.7-128.2 8.1-6.6 48.2-28.4 88.7-28.9z"/>
			<path id="&lt;Path&gt;" class="s12" d="m865.3 712.3h-5.2c-1.3 14.5-16.2 25.7-36.2 30.2-23.3 5.2-46.6 16-52.1 14.9-10.5-1.9 1.3-15.1 3.3-17.1-16 2-36.1 13-43.5 11.5-7.4-1.5-2.4-8.6-1.1-11.8q-1 0.7-1.6 1.2c-8.1 6.6-17.7 128.2-17.7 128.2l23.5 2.4c5.6-11.2 16.5-109.7 25.1-108.7 8.7 0.9-14.5 108.7-14.5 108.7l25.8 3.3c9.2-29.9 19.7-59.1 24.1-80.2 4-19 2.2-31.5 3.2-32.5 2-2 66.4-4.7 72.3-14.1 9.8-15.7-5.4-36-5.4-36z"/>
			<g id="&lt;Group&gt;">
				<path id="&lt;Path&gt;" class="s14" d="m788.6 596.8c1.1-3 9.3-5.9 9.3-5.9 0 0-1.6-4.8 0.8-7.3 8.5-0.8 14.2-3.3 19.6-9.2 4.3 1.7 5.1 5.9 5.1 5.9 0 0 23.8 1.1 28.3 9.1 19 34.1 20.7 110.6 18.8 127.1 0 0-27.8 9-81.8 1.3 0 0-4.1-110.7-0.1-121z"/>
				<path id="&lt;Path&gt;" class="s7" d="m839.3 595.6c-26.6-7.2-20.6 39-40.6 43-16.6 3.7-8.8-25-7.6-44.4-1.2 0.8-2.2 1.7-2.5 2.6-4 10.3 0.1 121 0.1 121 54 7.7 81.8-1.3 81.8-1.3 1.1-9 1-35.6-2.3-63.6-10.9-21.2-10.8-51.2-28.9-57.3z"/>
				<g id="&lt;Group&gt;" style="opacity: .3">
					<path id="&lt;Path&gt;" class="s1" d="m792.9 601.3c2.7-0.4-0.6 25.4 5.4 25.9 6 0.6 16.1-21.8 17.6-21.8 1.5 0-6.4 30.8-18.1 30.4-11.7-0.5-7.1-34.2-4.9-34.5z"/>
				</g>
			</g>
			<path id="&lt;Path&gt;" class="s9" d="m709.1 669.3q-0.5 0.2-0.9 0.3c0.4 0 0.7-0.1 0.9-0.3z"/>
			<g id="&lt;Group&gt;">
				<path id="&lt;Path&gt;" class="s9" d="m732.2 663.3c-3.5 0.5-15.6 2.8-18.2 4.2-2.5 1.4-10.2 3-10.3 4.1-0.2 1.2 1.9 2.6 5.1 2.6 0 0-3.4 2.8-2.4 3.9 1 1.1 5.5 1.9 7 1.1 1.5-0.7 7.4-5.3 8.2-5.8 0.4-0.2 1.7-0.4 3.2-0.4-2.8 2.1-6.6 5.3-5.6 6.4 3 3.1 8.7-1.6 11.9-4.6 3.5 1.8 14.2 1.6 16.1 1.1l1.5-10.1c0 0-13-2.9-16.5-2.5z"/>
				<path id="&lt;Path&gt;" class="s10" d="m714 675.6c-1.6 0.8-4.2-0.2-3.5-1.2 1-1.5 5.9-3.6 5.1-3.9-5.5 3-10.5 0.9-8.1-0.7-2 0.7-3.8 1.3-3.8 1.8-0.2 1.2 1.9 2.6 5.1 2.6 0 0-3.4 2.8-2.4 3.9 1 1.1 5.5 1.9 7 1.1 1.5-0.7 7.4-5.3 8.2-5.8 0.4-0.2 1.7-0.4 3.2-0.4-2.8 2.1-6.6 5.3-5.6 6.4 3 3.1 8.7-1.6 11.9-4.6 3.5 1.8 14.2 1.6 16.1 1.1l0.8-3.7c-5.3 0.2-10.9-2.6-16.8-2.6-6-0.1-12.2 2.6-17.2 6z"/>
				<path id="&lt;Path&gt;" class="s14" d="m823.9 600.9c4.2-11.1 17.2-17.8 24.9-11.8 7.6 5.9 4.4 20.9-1.2 31.9-5.5 11.1-26.7 62.5-34.9 66.7-9.6 4.9-69-8-69-8l3.4-17.1c0 0 47.9 2.7 51.6 0.7 3.6-2 20.2-49.5 25.2-62.4z"/>
				<path id="&lt;Path&gt;" class="s7" d="m848.8 589.1c-0.3-0.4-0.7-0.5-1.1-0.7-7.3 32.1-33.5 87.4-37.4 90-3.9 2.6-41.1-0.6-65.4-4.8l-0.7 3.5c0 0 57.2 12.8 66.7 7.9 8.2-4.1 29.9-53.6 35.4-64.6 5.6-11 7-25.8 2.5-31.3z"/>
				<g id="&lt;Group&gt;" style="opacity: .3">
					<path id="&lt;Path&gt;" class="s1" d="m831.6 593.2c1.4-2.5 7.2-5.2 9-3.7 1.9 1.5-15.5 33.9-18.1 34.1-2.6 0.2 6.1-25.2 9.1-30.4z"/>
				</g>
			</g>
			<g id="&lt;Group&gt;">
				<path id="&lt;Path&gt;" class="s6" d="m829.5 714v24.6h-219.7v-24.6h-12.5v183h12.5v-151.3h219.7v151.3h12.4v-183z"/>
				<path id="&lt;Path&gt;" class="s13" d="m873.2 717.1h-306.3v-20.5h306.3z"/>
				<path id="&lt;Path&gt;" class="s3" d="m873.2 717.1h-306.3v-4.8h306.3z"/>
			</g>
			<g id="&lt;Group&gt;">
				<path id="&lt;Path&gt;" class="s1" d="m817.4 556.4c0 1.3-1.1 2.4-2.4 2.4-1.3 0-2.3-1.1-2.3-2.4 0-1.3 1-2.3 2.3-2.3 1.3 0 2.4 1 2.4 2.3z"/>
			</g>
		</g>
	</g>
</svg>